<?xml version="1.0" encoding="UTF-8"?>
<svg xmlns="http://www.w3.org/2000/svg"
     width="534mm" height="236mm"
     viewBox="0 0 534 236">
  <style>text { font-family: Helvetica, Arial, sans-serif; }</style>
  <rect width="534" height="236" fill="#F5F5F0"/>
  <text x="267.0" y="13" text-anchor="middle" font-size="5.5" font-weight="bold" fill="#333">Matterhorn Classic — Toblerone Gold (#8C714C) on Various Shirts</text>

  <rect x="15" y="22" width="160" height="80" rx="4" fill="#FFFFFF" stroke="#CCC" stroke-width="0.3"/>
  <svg x="64.41176470588235" y="34.0" width="61.1764705882353" height="52.0" viewBox="0 0 200 180">
    <path fill="#8C714C" d="M95,10 L60,65 L38,80 L15,110 L0,170 L200,170 L170,120 L145,85 L125,55 L110,35 Z"/>
<path d="M95,10 L88,30 Q92,35 100,32 L108,28 L110,35 L102,42 Q96,45 90,40 L82,48 L60,65 L78,50 Q88,42 95,38 L105,32 L115,42 L125,55 L110,35 Z" fill="white" opacity="0.25"/>
  </svg>
  <text x="95.0" y="107" text-anchor="middle" font-size="3" fill="#666">White shirt · Toblerone Gold (#8C714C)</text>

  <rect x="187" y="22" width="160" height="80" rx="4" fill="#111111"/>
  <svg x="236.41176470588235" y="34.0" width="61.1764705882353" height="52.0" viewBox="0 0 200 180">
    <path fill="#8C714C" d="M95,10 L60,65 L38,80 L15,110 L0,170 L200,170 L170,120 L145,85 L125,55 L110,35 Z"/>
<path d="M95,10 L88,30 Q92,35 100,32 L108,28 L110,35 L102,42 Q96,45 90,40 L82,48 L60,65 L78,50 Q88,42 95,38 L105,32 L115,42 L125,55 L110,35 Z" fill="white" opacity="0.25"/>
  </svg>
  <text x="267.0" y="107" text-anchor="middle" font-size="3" fill="#666">Black shirt · Toblerone Gold (#8C714C)</text>

  <rect x="359" y="22" width="160" height="80" rx="4" fill="#F5F0E1" stroke="#CCC" stroke-width="0.3"/>
  <svg x="408.4117647058823" y="34.0" width="61.1764705882353" height="52.0" viewBox="0 0 200 180">
    <path fill="#8C714C" d="M95,10 L60,65 L38,80 L15,110 L0,170 L200,170 L170,120 L145,85 L125,55 L110,35 Z"/>
<path d="M95,10 L88,30 Q92,35 100,32 L108,28 L110,35 L102,42 Q96,45 90,40 L82,48 L60,65 L78,50 Q88,42 95,38 L105,32 L115,42 L125,55 L110,35 Z" fill="white" opacity="0.25"/>
  </svg>
  <text x="439.0" y="107" text-anchor="middle" font-size="3" fill="#666">Cream shirt · Toblerone Gold (#8C714C)</text>

  <rect x="15" y="124" width="160" height="80" rx="4" fill="#1B2A4A"/>
  <svg x="64.41176470588235" y="136.0" width="61.1764705882353" height="52.0" viewBox="0 0 200 180">
    <path fill="#8C714C" d="M95,10 L60,65 L38,80 L15,110 L0,170 L200,170 L170,120 L145,85 L125,55 L110,35 Z"/>
<path d="M95,10 L88,30 Q92,35 100,32 L108,28 L110,35 L102,42 Q96,45 90,40 L82,48 L60,65 L78,50 Q88,42 95,38 L105,32 L115,42 L125,55 L110,35 Z" fill="white" opacity="0.25"/>
  </svg>
  <text x="95.0" y="209" text-anchor="middle" font-size="3" fill="#666">Navy shirt · Toblerone Gold (#8C714C)</text>

  <rect x="187" y="124" width="160" height="80" rx="4" fill="#3E2723"/>
  <svg x="236.41176470588235" y="136.0" width="61.1764705882353" height="52.0" viewBox="0 0 200 180">
    <path fill="#8C714C" d="M95,10 L60,65 L38,80 L15,110 L0,170 L200,170 L170,120 L145,85 L125,55 L110,35 Z"/>
<path d="M95,10 L88,30 Q92,35 100,32 L108,28 L110,35 L102,42 Q96,45 90,40 L82,48 L60,65 L78,50 Q88,42 95,38 L105,32 L115,42 L125,55 L110,35 Z" fill="white" opacity="0.25"/>
  </svg>
  <text x="267.0" y="209" text-anchor="middle" font-size="3" fill="#666">Brown shirt · Toblerone Gold (#8C714C)</text>

  <rect x="359" y="124" width="160" height="80" rx="4" fill="#808080"/>
  <svg x="408.4117647058823" y="136.0" width="61.1764705882353" height="52.0" viewBox="0 0 200 180">
    <path fill="#8C714C" d="M95,10 L60,65 L38,80 L15,110 L0,170 L200,170 L170,120 L145,85 L125,55 L110,35 Z"/>
<path d="M95,10 L88,30 Q92,35 100,32 L108,28 L110,35 L102,42 Q96,45 90,40 L82,48 L60,65 L78,50 Q88,42 95,38 L105,32 L115,42 L125,55 L110,35 Z" fill="white" opacity="0.25"/>
  </svg>
  <text x="439.0" y="209" text-anchor="middle" font-size="3" fill="#666">Gray shirt · Toblerone Gold (#8C714C)</text>
</svg>
